<mxfile host="app.diagrams.net" agent="Mozilla/5.0 (Windows NT 10.0; Win64; x64) AppleWebKit/537.36 (KHTML, like Gecko) Chrome/131.0.0.0 Safari/537.36" version="24.7.17">
  <diagram id="C5RBs43oDa-KdzZeNtuy" name="Page-1">
    <mxGraphModel dx="1687" dy="918" grid="1" gridSize="10" guides="1" tooltips="1" connect="1" arrows="1" fold="1" page="1" pageScale="1" pageWidth="827" pageHeight="1169" math="0" shadow="0">
      <root>
        <mxCell id="WIyWlLk6GJQsqaUBKTNV-0" />
        <mxCell id="WIyWlLk6GJQsqaUBKTNV-1" parent="WIyWlLk6GJQsqaUBKTNV-0" />
        <mxCell id="qispf5JoN0M9V1j4HvIJ-13" value="" style="shape=image;verticalLabelPosition=bottom;labelBackgroundColor=default;verticalAlign=top;aspect=fixed;imageAspect=0;image=data:image/png,iVBORw0KGgoAAAANSUhEUgAAAZ8AAAJOCAIAAADnCp3UAAAYVElEQVR4Ae3bf29UBRbHYV/c/nwhZpmWCpS2aWyCBqIJIYVEY4mE2D9MmkgbkBIrZWQ1gw610Wm4C4ga9a3s0rtMxnKdtMPM7czXZ7LJYgudOc85ftoivPbbb7/98ssvP//8848//vjs2bMffvjh6dOnT548efz48X/2H4UHAQIExkng0YtH+aLKUj1+/PjJkydPnz599uzZTz/99Ouvv772Lw8CBAhkCZw4ceLkyZOv/eNvfxnp//7597/6HwECEycw0izU8MFPnDihbuJLgECFQA0BGulTvP766+pWsdeJ+zTrBRMYusBI01PDB1c3aSNAoFqghgCN9CnUrXqvQ/806AMSmDiBkaanhg+ubupGgEC1QA0BGulTqFv1Xifu06wXTGDoAiNNTw0fXN3UjQCBaoEaAjTSpzhy3XYePjzqCxr6pxQfkACBGgSO+m/6uP18dav+rFXD6XgKAmMuMG61OurrUTd1I0CgWuCoNRnuz9/evjs3e+aPPubc7Jnt7bt/9N7y7epWvdcx/6Tq5RGoQaB/O0b93rnZM//+9/3KwPV5V++rUjd1I0CgWqC3FMfy48qKVb6x8uWpW/Vea/jE6CkIjLlAZTJqfuOBlh34x/4vRt3UjQCBaoH+7ajtvd2idX9wyKfuV7f//eGPw/+vz/ON+ScoL48AgUqBPv9Sb2/fPfCb+od5S58P2P9dZdf+6Lfh/ujX9qtb5a/x590q78AbCeQJVBagfONhWvbyz+nzAfu/S92qv7rOuzkTEahHoH9xantv9xvS7g8O+dS+dtNEAgSqBQ4ZkZH+tANFO/CP/Z9a3ar3Ws/nRs9CYJwF+rejhvdWtqzyjZUvRt3UjQCBaoHKZNT2xj4V6/Ou3penbtV7HefPqF4bgXoEektR/49vf3qr8i8qlK/E38RSLgIEBheov2jDfcYjf+02wNPX83nGsxAgMFyBAf5lH6tfom6Df2Yb7iX5aATGTWCsUjXAi1E3dSNAoFpggKCM1S9Rt+q9jttnUa+HQP0CY5WqAV6MuqkbAQLVAgMEZax+ibpV77X+z5OekcC4CYxVqgZ4MeqmbgQIVAsMEJSx+iXqVr3Xcfss6vUQqF9grFI1wItRN3UjQKBaYICgjNUveV63hgcBAgTiBNQtbqUGIkBgX0DdHAIBApkC6pa5V1MRIKBuboAAgUwBdcvcq6kIEFA3N0CAQKaAumXu1VQECKibGyBAIFNA3TL3aioCBNTNDRAgkCmgbpl7NRUBAurmBggQyBRQt8y9mooAAXVzAwQIZAqoW+ZeTUWAgLq5AQIEMgXULXOvpiJAQN3cAAECmQLqlrlXUxEgoG5ugACBTAF1y9yrqQgQUDc3QIBApoC6Ze7VVAQIqJsbIEAgU0DdMvdqKgIE1M0NECCQKaBumXs1FQEC6uYGCBDIFFC3zL2aigABdXMDBAhkCqhb5l5NRYCAurkBAgQyBdQtc6+mIkBA3dwAAQKZAuqWuVdTESCgbm6AAIFMAXXL3KupCBBQNzdAgECmgLpl7tVUBAiomxsgQCBTQN0y92oqAgTUzQ0QIJApoG6ZezUVAQLq5gYIEMgUULfMvZqKAAF1cwMECGQKqFvmXk1FgIC6uQECBDIF1C1zr6YiQEDd3AABApkC6pa5V1MRIKBuboAAgUwBdcvcq6kIEFA3N0CAQKaAumXu1VQECKibGyBAIFNA3TL3aioCBNTNDRAgkCmgbpl7NRUBAurmBggQyBRQt8y9mooAAXVzAwQIZAqoW+ZeTUWAgLq5AQIEMgXULXOvpiJAQN3cAAECmQLqlrlXUxEgoG5ugACBTAF1y9yrqQgQUDc3QIBApoC6Ze7VVAQIqJsbIEAgU0DdMvdqKgIE1M0NECCQKaBumXs1FQEC6uYGCBDIFFC3zL2aigABdXMDBAhkCqhb5l5NRYCAurkBAgQyBdQtc6+mIkBA3dwAAQKZAuqWuVdTESCgbm6AAIFMAXXL3KupCBBQNzdAgECmgLpl7tVUBAiomxsgQCBTQN0y92oqAgTUzQ0QIJApoG6ZezUVAQLq5gYIEMgUULfMvZqKAAF1cwMECGQKqFvmXk1FgIC6uQECBDIF1C1zr6YiQEDd3AABApkC6pa5V1MRIKBuboAAgUwBdcvcq6kIEFA3N0CAQKaAumXu1VQECKibGyBAIFNA3TL3aioCBNTNDRAgkCmgbpl7NRUBAurmBggQyBRQt8y9mooAAXVzAwQIZAqoW+ZeTUWAgLq5AQIEMgXULXOvpiJAQN3cAAECmQLqlrlXUxEgoG5ugACBTAF1y9yrqQgQUDc3QIBApoC6Ze7VVAQIqJsbIEAgU0DdMvdqKgIE1M0NECCQKaBumXs1FQEC6uYGCBDIFFC3zL2aigABdXMDBAhkCqhb5l5NRYCAurkBAgQyBdQtc6+mIkBA3dwAAQKZAuqWuVdTESCgbm6AAIFMAXXL3KupCBBQNzdAgECmgLpl7tVUBAiomxsgQCBTQN0y92oqAgTUzQ0QIJApoG6ZezUVAQLq5gYIEMgUULfMvZqKAAF1cwMECGQKqFvmXk1FgIC6uQECBDIF1C1zr6YiQEDd3AABApkC6pa5V1MRIKBuboAAgUwBdcvcq6kIEFA3N0CAQKaAumXu1VQECKibGyBAIFNA3TL3aioCBNTNDRAgkCmgbpl7NRUBAurmBggQyBRQt8y9mooAAXVzAwQIZAqoW+ZeTUWAgLq5AQIEMgXULXOvpiJAQN3cAAECmQLqlrlXUxEgoG5ugACBTAF1y9yrqQgQUDc3QIBApoC6Ze7VVAQIqJsbIEAgU0DdMvdqKgIE1M0NECCQKaBumXs1FQEC6uYGCBDIFFC3zL2aigABdXMDBAhkCqhb5l5NRYCAurkBAgQyBdQtc6+mIkBA3dwAAQKZAuqWuVdTESCgbm6AAIFMAXXL3KupCBBQNzdAgECmgLpl7tVUBAiomxsgQCBTQN0y92oqAgTUzQ0QIJApoG6ZezUVAQLq5gYIEMgUULfMvZqKAAF1cwMECGQKqFvmXk1FgIC6uQECBDIF1C1zr6YiQEDd3AABApkC6pa5V1MRIKBuboAAgUwBdcvcq6kIEFA3N0CAQKaAumXu1VQECKibGyBAIFNA3TL3aioCBNTNDRAgkCmgbpl7NRUBAurmBggQyBRQt8y9mooAAXVzAwQIZAqoW+ZeTUWAgLq5AQIEMgXULXOvpiJAQN3cAAECmQLqlrlXUxEgoG5ugACBTAF1y9yrqQgQUDc3QIBApoC6Ze7VVAQIqJsbIEAgU0DdMvdqKgIE1M0NECCQKaBumXs1FQEC6uYGCBDIFFC3zL2aigABdXMDBAhkCqhb5l5NRYCAurkBAgQyBdQtc6+mIkBA3dwAAQKZAuqWuVdTESCgbm6AAIFMAXXL3KupCBBQNzdAgECmgLpl7tVUBAiomxsgQCBTQN0y92oqAgTUzQ0QIJApoG6ZezUVAQLq5gYIEMgUULfMvZqKAAF1cwMECGQKqFvmXk1FgIC6uQECBDIF1C1zr6YiQEDd3AABApkC6pa5V1MRIKBuboAAgUwBdcvcq6kIEFA3N0CAQKaAumXu1VQECKibGyBAIFNA3TL3aioCBNTNDRAgkCmgbpl7NRUBAurmBggQyBRQt8y9mooAAXVzAwQIZAqoW+ZeTUWAgLq5AQIEMgXULXOvpiJAQN3cAAECmQLqlrlXUxEgoG5ugACBTAF1y9yrqQgQUDc3QIBApoC6Ze7VVAQIqJsbIEAgU0DdMvdqKgIE1M0NECCQKaBumXs1FQEC6uYGCBDIFFC3zL2aigABdXMDBAhkCqhb5l5NRYCAurkBAgQyBdQtc6+mIkBA3dwAAQKZAuqWuVdTESCgbm6AAIFMAXXL3KupCBBQNzdAgECmgLpl7tVUBAiomxsgQCBTQN0y92oqAgTUzQ0QIJApoG6ZezUVAQLq5gYIEMgUULfMvZqKAAF1cwMECGQKqFvmXk1FgIC6uQECBDIF1C1zr6YiQEDd3AABApkC6pa5V1MRIKBuboAAgUwBdcvcq6kIEFA3N0CAQKaAumXu1VQECKibGyBAIFNA3TL3aioCBNTNDRAgkCmgbpl7NRUBAurmBggQyBRQt8y9mooAAXVzAwQIZAqoW+ZeTUWAgLq5AQIEMgXULXOvpiJAQN3cAAECmQLqlrlXUxEgoG5ugACBTAF1y9yrqQgQUDc3QIBApoC6Ze7VVAQIqJsbIEAgU0DdMvdqKgIE1M0NECCQKaBumXs1FQEC6uYGCBDIFFC3zL2aigABdXMDBAhkCqhb5l5NRYCAurkBAgQyBdQtc6+mIkBA3dwAAQKZAuqWuVdTESCgbm6AAIFMAXXL3KupCBBQNzdAgECmgLpl7tVUBAiomxsgQCBTQN0y92oqAgTUzQ0QIJApoG6ZezUVAQLq5gYIEMgUULfMvZqKAAF1cwMECGQKqFvmXk1FgIC6uQECBDIF1C1zr6YiQEDd3AABApkC6pa5V1MRIKBuboAAgUwBdcvcq6kIEFA3N0CAQKaAumXu1VQECKibGyBAIFNA3TL3aioCBNTNDRAgkCmgbpl7NRUBAurmBggQyBRQt8y9mooAAXVzAwQIZAqoW+ZeTUWAgLq5AQIEMgXULXOvpiJAQN3cAAECmQLqlrlXUxEgoG5ugACBTAF1y9yrqQgQUDc3QIBApoC6Ze7VVAQIqJsbIEAgU0DdMvdqKgIE1M0NECCQKaBumXs1FQEC6uYGCBDIFFC3zL2aigABdXMDBAhkCqhb5l5NRYCAurkBAgQyBdQtc6+mIkBA3dwAAQKZAuqWuVdTESCgbm6AAIFMAXXL3KupCBBQNzdAgECmgLpl7tVUBAiomxsgQCBTQN0y92oqAgTUzQ0QIJApoG6ZezUVAQLq5gYIEMgUULfMvZqKAAF1cwMECGQKqFvmXk1FgIC6uQECBDIF1C1zr6YiQEDd3AABApkC6pa5V1MRIKBuboAAgUwBdcvcq6kIEFA3N0CAQKaAumXu1VQECKibGyBAIFNA3TL3aioCBNTNDRAgkCmgbpl7NRUBAurmBggQyBRQt8y9mooAAXVzAwQIZAqoW+ZeTUWAgLq5AQIEMgXULXOvpiJAQN3cAAECmQLqlrlXUxEgoG5ugACBTAF1y9yrqQgQUDc3QIBApoC6Ze7VVAQIqJsbIEAgU0DdMvdqKgIE1M0NECCQKaBumXs1FQEC6uYGCBDIFFC3zL2aigABdXMDBAhkCqhb5l5NRYCAurkBAgQyBdQtc6+mIkBA3dwAAQKZAuqWuVdTESCgbm6AAIFMAXXL3KupCBBQNzdAgECmgLpl7tVUBAiomxsgQCBTQN0y92oqAgTUzQ0QIJApoG6ZezUVAQLq5gYIEMgUULfMvZqKAAF1cwMECGQKqFvmXk1FgIC6uQECBDIF1C1zr6YiQEDd3AABApkC6pa5V1MRIKBuboAAgUwBdcvcq6kIEFA3N0CAQKaAumXu1VQECKibGyBAIFNA3TL3aioCBNTNDRAgkCmgbpl7NRUBAurmBggQyBRQt8y9mooAAXVzAwQIZAqoW+ZeTUWAgLq5AQIEMgXULXOvpiJAQN3cAAECmQLqlrlXUxEgoG5ugACBTAF1y9yrqQgQUDc3QIBApoC6Ze7VVAQIqJsbIEAgU0DdMvdqKgIE1M0NECCQKaBumXs1FQEC6uYGCBDIFFC3zL2aigABdXMDBAhkCqhb5l5NRYCAurkBAgQyBdQtc6+mIkBA3dwAAQKZAuqWuVdTESCgbm6AAIFMAXXL3KupCBBQNzdAgECmgLpl7tVUBAiomxsgQCBTQN0y92oqAgTUzQ0QIJApoG6ZezUVAQLq5gYIEMgUULfMvZqKAAF1cwMECGQKqFvmXk1FgIC6uQECBDIF1C1zr6YiQEDd3AABApkC6pa5V1MRIKBuboAAgUwBdcvcq6kIEFA3N0CAQKaAumXu1VQECKibGyBAIFNA3TL3aioCBNTNDRAgkCmgbpl7NRUBAurmBggQyBRQt8y9mooAAXVzAwQIZAqoW+ZeTUWAgLq5AQIEMgXULXOvpiJAQN3cAAECmQLqlrlXUxEgoG5ugACBTAF1y9yrqQgQUDc3QIBApoC6Ze7VVAQIqJsbIEAgU0DdMvdqKgIE1M0NECCQKaBumXs1FQEC6uYGCBDIFFC3zL2aigABdXMDBAhkCqhb5l5NRYCAurkBAgQyBdQtc6+mIkBA3dwAAQKZAs/rNudBgACBOAFfu2V+1jIVAQLq5gYIEMgUULfMvZqKAAF1cwMECGQKqFvmXk1FgIC6uQECBDIF1C1zr6YiQEDd3AABApkC6pa5V1MRIKBuboAAgUwBdcvcq6kIEFC3ibyBpaWliXzdXjSBGgXUrUbs4T1VURTD+2Dj+JFaAz3GcRKv6fgEjly3lZWV4qVHq9VaWFioc4q1tbXeV9Fut8+fPz/qF1AUxebm5oFn2dzcrL81NTxjq9VaXl5uNBpbW1uHT80BnIH/sSiKZrO5eehHs9mswWTgcfzCYxEYvG67u7utVmt3d7fYf7RarfoHaDabX375ZW3P+6eq2+bmZvkJY21t7dCROZj+gVdTFMXKysrhf3n5SffwP9/P/DMIDF638quYhYWFbuDq9+p0Omtra7U973HVbX5+fmlpaWFhYWpqqhy2+3XK3Nzc0tLS2bNna0Oo54l667a8/6h83uXl5TLB6lbp8yd/46vWrfzOpSiKTqdTM+Xq6mpRFHV+R1x/3c6ePfvNN9/s7e19//33e3t79+/fn5mZaTQaRVFMT0+vr693Op3yXXfu3Jmenh7iClZWVkrb5eXllUM/hvUCunVbXl7u7D/Kb5MPfPzV1dWNjY1Go6FuB2T8Y6PReNW6nT9/vtPpFEVR59dQ5eZq/ra0bErNv+928eLFy5cvz87OzszMzM3N7ezsXL9+vXwlN27ceO+9906fPj0zM7O4uPjw4cNPPvlkiDfd7Uur1SoO/RjWCyifvUxbs9lcW1vrdDqVgSufUd2GJZ/0cQavW/n7buVXbfWnrdFo1Pxt6bHUrfutaHlzly9ffvDgQflKPv300973Li4u7u3tLS4uZlxnURQbGxudTqfZbJYTvRy43i/b1S1j78OdYvC6Fb9/1By4+r8tPZa6lcuenZ09d+7cxYsXP/roo0ePHpWv5MKFC72nMD09vbOz8+677/a+cXJ/XOw/umkrB+kN3MLCQrvd7v4EdZvcXY/ulQ9et+73aOV/jC+KooY/k9GFqP/b0vrrVgz06BK94g+O/TvTbrl6BykDt7Ky0n7xKH+auvUq+XEpMIS6lYdVfitRG2v935Y2Go3d3d2tra0DM25tbbXb7QNvHMo/zs3NPXr06Nq1a6dePM6dO1cUxalTp4qiWFxcfPHm5/9/5syZnZ2dS5cuDeWpy9+nH4f/qvDyOOUfdWy32wv7j/IrOHV7GcpbhlC3jY2NYv9R2zenx/JtaaPRaDabu7u7vb/dUyav8quMV7+tCxcufPvttydPnux+qKtXr5Z/FqQoiitXrnTf3mg0Zmdn9/b25ufne984uT/ufuVYOcLL36K22+3un5Kp/CXe+CcUGLxu5X9V6P4HtU6nc+Bf+9FpHsu3pY1GY3l5uSiKdru9urq6sv9otVqdTmdE35K/9dZb33333alTp0rJ+fn5r7/+ulu3VqvVfdcbb7yxvb093M8uY/6neV8OnLqN7t+4Cf3Ig9et6Hns7u72+a/1Q6RZW1srg1K2dWtrq7akllOUv+PTHb3715WGOGP3Q01PT29vbz948OD999+/du1as9l88803u3V75513Hj58eP369atXr37xxRf37t3rxq77EV7lB93RxvZvYrXb7U6nU/49Cn8T61V2nfprj1y3hYWFld8/6uzL75/5/3/c9Fh2U8/UU1NTV65cWV9f//DDD6empmZmZsrfWbt06dL09PTMzMwHH3zw8ccfv/3228eCMLonPfzfbO39maN7PT7yJAocuW6TOORQXnP3P54UVY8j/aXIobweH4QAgf4C6tbfx3sJEJhUAXWb1M153QQI9BdQt/4+3kuAwKQKqNukbs7rJkCgv4C69ffxXgIEJlVA3SZ1c143AQL9BdStv4/3EiAwqQLqNqmb87oJEOgvoG79fbyXAIFJFVC3Sd2c102AQH8Bdevv470ECEyqwPO6nfYgQIBAnMDzut2/f//evXt379797LPP7ty5s7m5efv27Vu3bt28eXNj/7G+vn7DgwABAmMpsL6+Xpbq5s2bt27dun379ubm5ueff/7VV1/9F4u0fafkQOx8AAAAAElFTkSuQmCC;" vertex="1" parent="WIyWlLk6GJQsqaUBKTNV-1">
          <mxGeometry width="819.45" height="1165" as="geometry" />
        </mxCell>
        <mxCell id="qispf5JoN0M9V1j4HvIJ-14" value="청주대학교 &lt;br&gt;체육관 관리시스템&lt;br&gt;(GMS-Gym Management System)" style="rounded=1;whiteSpace=wrap;html=1;fillColor=#f5f5f5;strokeColor=#666666;gradientColor=#b3b3b3;perimeterSpacing=12;" vertex="1" parent="WIyWlLk6GJQsqaUBKTNV-1">
          <mxGeometry x="20" y="80" width="220" height="60" as="geometry" />
        </mxCell>
        <mxCell id="qispf5JoN0M9V1j4HvIJ-57" value="&lt;h3&gt;Check List !!&lt;/h3&gt;" style="swimlane;fontStyle=0;childLayout=stackLayout;horizontal=1;startSize=20;fillColor=#fff2cc;horizontalStack=0;resizeParent=1;resizeParentMax=0;resizeLast=0;collapsible=1;marginBottom=0;html=1;strokeColor=#d6b656;" vertex="1" parent="WIyWlLk6GJQsqaUBKTNV-1">
          <mxGeometry x="20" y="180" width="220" height="890" as="geometry" />
        </mxCell>
        <mxCell id="qispf5JoN0M9V1j4HvIJ-58" value="&lt;h4&gt;&lt;font style=&quot;font-size: 15px;&quot; face=&quot;Verdana&quot;&gt;&lt;font color=&quot;#3333ff&quot;&gt;목적:&lt;/font&gt; 자바프로그래밍 2 수업의 기말고사를 준비하면서 실제로 평소에 큰 불편함을 느낀 교내 체육관 사용에 개선과 발전을 위해 프로그램을 구상하였습니다. 나중에&amp;nbsp; 들어올 신입생 뿐만 아니라 재학생들이 올바르게 학교 시설의 복지를 누리면서 학교 생활을 이어가기를 바라는 마음에 이 프로그램을 기획 및 제작함.&lt;/font&gt;&lt;/h4&gt;" style="text;strokeColor=#d79b00;fillColor=#ffe6cc;align=left;verticalAlign=top;spacingLeft=4;spacingRight=4;overflow=hidden;rotatable=0;points=[[0,0.5],[1,0.5]];portConstraint=eastwest;whiteSpace=wrap;html=1;" vertex="1" parent="qispf5JoN0M9V1j4HvIJ-57">
          <mxGeometry y="20" width="220" height="240" as="geometry" />
        </mxCell>
        <mxCell id="qispf5JoN0M9V1j4HvIJ-59" value="&lt;h4 style=&quot;font-size: 15px;&quot;&gt;&lt;font style=&quot;font-size: 15px;&quot; face=&quot;Verdana&quot;&gt;&lt;font color=&quot;#ff3333&quot;&gt;기대값 : &lt;/font&gt;회원 관리 기능, 기구 관리 기능,공지사항 관리 기능으로 간단하지만 체육관 관리 기능을 구현합니다. 회원관리기능에서는 회원 추가,목록,삭제를 구현했으며 기구 관리 기능에서는 기구 추가,삭제,상태 조회를 구현했고 공지사항기능에서도 똑같이 추가,수정,삭제 기능을 구현했습니다. 간단한 기능들이지만&amp;nbsp;&lt;br&gt;컬렉션 프레임워크(Hash Map)과 입출력처리 를 활용하여 쉽게 코드를 구현 함.&lt;/font&gt;&lt;/h4&gt;" style="text;strokeColor=#d79b00;fillColor=#ffe6cc;align=left;verticalAlign=top;spacingLeft=4;spacingRight=4;overflow=hidden;rotatable=0;points=[[0,0.5],[1,0.5]];portConstraint=eastwest;whiteSpace=wrap;html=1;" vertex="1" parent="qispf5JoN0M9V1j4HvIJ-57">
          <mxGeometry y="260" width="220" height="300" as="geometry" />
        </mxCell>
        <mxCell id="qispf5JoN0M9V1j4HvIJ-60" value="&lt;h4&gt;&lt;font style=&quot;font-size: 15px;&quot; face=&quot;Verdana&quot;&gt;&lt;font color=&quot;#ff3333&quot;&gt;결과값:&lt;/font&gt;&amp;nbsp; 회원관리, 기구관리, 공지사항 관리 이 세가지 기능으로 체육관 관리를 함.&amp;nbsp; 회원관리기능에서는 회원의 이름으로 추가 삭제 목록 확인이 가능하며 기구 관리 기능에서는 똑같이 기구 이름으로&amp;nbsp; 상태 변경, 추가, 삭제거 가능하지만 공지사항에서는 이름과 같이 고유한 명사가 없으니 ID로 구분하여 공지사항을 추가 삭제 수정을 가능하게 함. 이모든 과정을 Hash Map과 입출력 처리로 위 세가지 기능을 구현하여 체육관 관리 시스템을 운영함.&lt;/font&gt;&lt;/h4&gt;" style="text;strokeColor=#d79b00;fillColor=#ffe6cc;align=left;verticalAlign=top;spacingLeft=4;spacingRight=4;overflow=hidden;rotatable=0;points=[[0,0.5],[1,0.5]];portConstraint=eastwest;whiteSpace=wrap;html=1;" vertex="1" parent="qispf5JoN0M9V1j4HvIJ-57">
          <mxGeometry y="560" width="220" height="330" as="geometry" />
        </mxCell>
        <mxCell id="qispf5JoN0M9V1j4HvIJ-94" value="README.md 작성&lt;div&gt;(11/22~26)&lt;br&gt;-개요&lt;br&gt;-class 다이어그램&lt;/div&gt;&lt;div&gt;-프로그램 수행절차&lt;/div&gt;" style="whiteSpace=wrap;html=1;treeFolding=1;treeMoving=1;newEdgeStyle={&quot;edgeStyle&quot;:&quot;elbowEdgeStyle&quot;,&quot;startArrow&quot;:&quot;none&quot;,&quot;endArrow&quot;:&quot;none&quot;};" vertex="1" parent="WIyWlLk6GJQsqaUBKTNV-1">
          <mxGeometry x="460" y="230" width="150" height="80" as="geometry" />
        </mxCell>
        <mxCell id="qispf5JoN0M9V1j4HvIJ-93" value="" style="edgeStyle=elbowEdgeStyle;elbow=vertical;sourcePerimeterSpacing=0;targetPerimeterSpacing=0;startArrow=none;endArrow=none;rounded=0;curved=0;entryX=0.5;entryY=0;entryDx=0;entryDy=0;exitX=0.5;exitY=1;exitDx=0;exitDy=0;" edge="1" parent="WIyWlLk6GJQsqaUBKTNV-1" source="qispf5JoN0M9V1j4HvIJ-94" target="qispf5JoN0M9V1j4HvIJ-67">
          <mxGeometry relative="1" as="geometry">
            <mxPoint x="380" y="220" as="sourcePoint" />
            <mxPoint x="436" y="220" as="targetPoint" />
          </mxGeometry>
        </mxCell>
        <mxCell id="qispf5JoN0M9V1j4HvIJ-96" value="" style="edgeStyle=elbowEdgeStyle;elbow=vertical;sourcePerimeterSpacing=0;targetPerimeterSpacing=0;startArrow=none;endArrow=none;rounded=0;curved=0;entryX=0.5;entryY=0;entryDx=0;entryDy=0;exitX=0.5;exitY=1;exitDx=0;exitDy=0;" edge="1" parent="WIyWlLk6GJQsqaUBKTNV-1" source="qispf5JoN0M9V1j4HvIJ-80" target="qispf5JoN0M9V1j4HvIJ-94">
          <mxGeometry relative="1" as="geometry">
            <mxPoint x="519.41" y="200" as="sourcePoint" />
            <mxPoint x="519.41" y="270" as="targetPoint" />
          </mxGeometry>
        </mxCell>
        <mxCell id="qispf5JoN0M9V1j4HvIJ-110" value="" style="edgeStyle=elbowEdgeStyle;elbow=vertical;sourcePerimeterSpacing=0;targetPerimeterSpacing=0;startArrow=none;endArrow=none;rounded=0;curved=0;exitX=0.5;exitY=1;exitDx=0;exitDy=0;" edge="1" parent="WIyWlLk6GJQsqaUBKTNV-1" source="qispf5JoN0M9V1j4HvIJ-98" target="qispf5JoN0M9V1j4HvIJ-13">
          <mxGeometry relative="1" as="geometry">
            <mxPoint x="353.41" y="610" as="sourcePoint" />
            <mxPoint x="353.41" y="670" as="targetPoint" />
            <Array as="points" />
          </mxGeometry>
        </mxCell>
        <mxCell id="qispf5JoN0M9V1j4HvIJ-64" value="Tree Container" style="swimlane;startSize=20;horizontal=1;containerType=tree;" vertex="1" parent="WIyWlLk6GJQsqaUBKTNV-1">
          <mxGeometry x="260" y="100" width="540" height="940" as="geometry" />
        </mxCell>
        <mxCell id="qispf5JoN0M9V1j4HvIJ-65" value="" style="edgeStyle=elbowEdgeStyle;elbow=vertical;sourcePerimeterSpacing=0;targetPerimeterSpacing=0;startArrow=none;endArrow=none;rounded=0;curved=0;" edge="1" parent="qispf5JoN0M9V1j4HvIJ-64" source="qispf5JoN0M9V1j4HvIJ-66" target="qispf5JoN0M9V1j4HvIJ-67">
          <mxGeometry relative="1" as="geometry" />
        </mxCell>
        <mxCell id="qispf5JoN0M9V1j4HvIJ-66" value="회원관리 기능&lt;br&gt;(11/30~ 12/3)" style="whiteSpace=wrap;html=1;treeFolding=1;treeMoving=1;newEdgeStyle={&quot;edgeStyle&quot;:&quot;elbowEdgeStyle&quot;,&quot;startArrow&quot;:&quot;none&quot;,&quot;endArrow&quot;:&quot;none&quot;};" vertex="1" parent="qispf5JoN0M9V1j4HvIJ-64">
          <mxGeometry x="33.5" y="260" width="120" height="40" as="geometry" />
        </mxCell>
        <mxCell id="qispf5JoN0M9V1j4HvIJ-67" value="기구관리 기능&lt;br&gt;(12/4~12/13)" style="whiteSpace=wrap;html=1;treeFolding=1;treeMoving=1;newEdgeStyle={&quot;edgeStyle&quot;:&quot;elbowEdgeStyle&quot;,&quot;startArrow&quot;:&quot;none&quot;,&quot;endArrow&quot;:&quot;none&quot;};" vertex="1" collapsed="1" parent="qispf5JoN0M9V1j4HvIJ-64">
          <mxGeometry x="210" y="260" width="130" height="40" as="geometry" />
        </mxCell>
        <mxCell id="qispf5JoN0M9V1j4HvIJ-80" value="GMS&amp;nbsp;&lt;br&gt;(Gym Management System)" style="rounded=1;whiteSpace=wrap;html=1;absoluteArcSize=1;arcSize=14;strokeWidth=2;" vertex="1" parent="qispf5JoN0M9V1j4HvIJ-64">
          <mxGeometry x="190" y="30" width="170" height="70" as="geometry" />
        </mxCell>
        <mxCell id="qispf5JoN0M9V1j4HvIJ-87" value="" style="edgeStyle=elbowEdgeStyle;elbow=vertical;sourcePerimeterSpacing=0;targetPerimeterSpacing=0;startArrow=none;endArrow=none;rounded=0;curved=0;entryX=0;entryY=0.5;entryDx=0;entryDy=0;exitX=1;exitY=0.5;exitDx=0;exitDy=0;" edge="1" parent="qispf5JoN0M9V1j4HvIJ-64" source="qispf5JoN0M9V1j4HvIJ-67" target="qispf5JoN0M9V1j4HvIJ-91">
          <mxGeometry relative="1" as="geometry">
            <mxPoint x="355" y="279.76" as="sourcePoint" />
            <mxPoint x="411" y="279.76" as="targetPoint" />
          </mxGeometry>
        </mxCell>
        <mxCell id="qispf5JoN0M9V1j4HvIJ-91" value="공지사항 관리 기능&lt;br&gt;(12/14~ 12/20)" style="whiteSpace=wrap;html=1;treeFolding=1;treeMoving=1;newEdgeStyle={&quot;edgeStyle&quot;:&quot;elbowEdgeStyle&quot;,&quot;startArrow&quot;:&quot;none&quot;,&quot;endArrow&quot;:&quot;none&quot;};" vertex="1" parent="qispf5JoN0M9V1j4HvIJ-64">
          <mxGeometry x="390" y="260" width="130" height="50" as="geometry" />
        </mxCell>
        <mxCell id="qispf5JoN0M9V1j4HvIJ-92" style="edgeStyle=elbowEdgeStyle;rounded=0;orthogonalLoop=1;jettySize=auto;html=1;startArrow=none;endArrow=none;entryX=1;entryY=0.5;entryDx=0;entryDy=0;" edge="1" parent="qispf5JoN0M9V1j4HvIJ-64" source="qispf5JoN0M9V1j4HvIJ-67" target="qispf5JoN0M9V1j4HvIJ-67">
          <mxGeometry relative="1" as="geometry" />
        </mxCell>
        <mxCell id="qispf5JoN0M9V1j4HvIJ-100" value="기구 추가 삭제기능&lt;br&gt;(12/4~12/6)" style="whiteSpace=wrap;html=1;treeFolding=1;treeMoving=1;newEdgeStyle={&quot;edgeStyle&quot;:&quot;elbowEdgeStyle&quot;,&quot;startArrow&quot;:&quot;none&quot;,&quot;endArrow&quot;:&quot;none&quot;};" vertex="1" collapsed="1" parent="qispf5JoN0M9V1j4HvIJ-64">
          <mxGeometry x="210" y="360" width="130" height="40" as="geometry" />
        </mxCell>
        <mxCell id="qispf5JoN0M9V1j4HvIJ-105" value="컬렉션 프레임워크&lt;br&gt;입출력처리&lt;div&gt;GUI환경 추가&lt;br&gt;(12/18~12/20)&lt;/div&gt;" style="whiteSpace=wrap;html=1;treeFolding=1;treeMoving=1;newEdgeStyle={&quot;edgeStyle&quot;:&quot;elbowEdgeStyle&quot;,&quot;startArrow&quot;:&quot;none&quot;,&quot;endArrow&quot;:&quot;none&quot;};" vertex="1" parent="qispf5JoN0M9V1j4HvIJ-64">
          <mxGeometry x="390" y="580" width="130" height="70" as="geometry" />
        </mxCell>
        <mxCell id="qispf5JoN0M9V1j4HvIJ-108" value="" style="edgeStyle=elbowEdgeStyle;elbow=vertical;sourcePerimeterSpacing=0;targetPerimeterSpacing=0;startArrow=none;endArrow=none;rounded=0;curved=0;entryX=0.5;entryY=0;entryDx=0;entryDy=0;exitX=0.5;exitY=1;exitDx=0;exitDy=0;" edge="1" parent="qispf5JoN0M9V1j4HvIJ-64" source="qispf5JoN0M9V1j4HvIJ-66" target="qispf5JoN0M9V1j4HvIJ-97">
          <mxGeometry relative="1" as="geometry">
            <mxPoint x="89" y="300" as="sourcePoint" />
            <mxPoint x="89" y="350" as="targetPoint" />
            <Array as="points" />
          </mxGeometry>
        </mxCell>
        <mxCell id="qispf5JoN0M9V1j4HvIJ-97" value="회원 추가 및 삭제기능&lt;br&gt;(11/30~12/1)" style="whiteSpace=wrap;html=1;treeFolding=1;treeMoving=1;newEdgeStyle={&quot;edgeStyle&quot;:&quot;elbowEdgeStyle&quot;,&quot;startArrow&quot;:&quot;none&quot;,&quot;endArrow&quot;:&quot;none&quot;};" vertex="1" parent="qispf5JoN0M9V1j4HvIJ-64">
          <mxGeometry x="34" y="360" width="120" height="40" as="geometry" />
        </mxCell>
        <mxCell id="qispf5JoN0M9V1j4HvIJ-109" value="" style="edgeStyle=elbowEdgeStyle;elbow=vertical;sourcePerimeterSpacing=0;targetPerimeterSpacing=0;startArrow=none;endArrow=none;rounded=0;curved=0;entryX=0.5;entryY=0;entryDx=0;entryDy=0;" edge="1" parent="qispf5JoN0M9V1j4HvIJ-64" target="qispf5JoN0M9V1j4HvIJ-98">
          <mxGeometry relative="1" as="geometry">
            <mxPoint x="93" y="400" as="sourcePoint" />
            <mxPoint x="92.91000000000003" y="460" as="targetPoint" />
            <Array as="points" />
          </mxGeometry>
        </mxCell>
        <mxCell id="qispf5JoN0M9V1j4HvIJ-98" value="회원 목록관리기능&lt;br&gt;(12/1~ 12/3)" style="whiteSpace=wrap;html=1;treeFolding=1;treeMoving=1;newEdgeStyle={&quot;edgeStyle&quot;:&quot;elbowEdgeStyle&quot;,&quot;startArrow&quot;:&quot;none&quot;,&quot;endArrow&quot;:&quot;none&quot;};" vertex="1" parent="qispf5JoN0M9V1j4HvIJ-64">
          <mxGeometry x="33.5" y="465" width="120" height="40" as="geometry" />
        </mxCell>
        <mxCell id="qispf5JoN0M9V1j4HvIJ-111" value="" style="edgeStyle=elbowEdgeStyle;elbow=vertical;sourcePerimeterSpacing=0;targetPerimeterSpacing=0;startArrow=none;endArrow=none;rounded=0;curved=0;entryX=0.5;entryY=0;entryDx=0;entryDy=0;exitX=0.5;exitY=1;exitDx=0;exitDy=0;" edge="1" parent="qispf5JoN0M9V1j4HvIJ-64" source="qispf5JoN0M9V1j4HvIJ-67" target="qispf5JoN0M9V1j4HvIJ-100">
          <mxGeometry relative="1" as="geometry">
            <mxPoint x="269.40999999999997" y="300" as="sourcePoint" />
            <mxPoint x="269.40999999999997" y="350" as="targetPoint" />
          </mxGeometry>
        </mxCell>
        <mxCell id="qispf5JoN0M9V1j4HvIJ-113" value="" style="edgeStyle=elbowEdgeStyle;elbow=vertical;sourcePerimeterSpacing=0;targetPerimeterSpacing=0;startArrow=none;endArrow=none;rounded=0;curved=0;exitX=0.5;exitY=0;exitDx=0;exitDy=0;" edge="1" parent="qispf5JoN0M9V1j4HvIJ-64" source="qispf5JoN0M9V1j4HvIJ-102">
          <mxGeometry relative="1" as="geometry">
            <mxPoint x="274.40999999999997" y="690" as="sourcePoint" />
            <mxPoint x="274" y="400" as="targetPoint" />
          </mxGeometry>
        </mxCell>
        <mxCell id="qispf5JoN0M9V1j4HvIJ-114" value="" style="edgeStyle=elbowEdgeStyle;elbow=vertical;sourcePerimeterSpacing=0;targetPerimeterSpacing=0;startArrow=none;endArrow=none;rounded=0;curved=0;entryX=0.5;entryY=0;entryDx=0;entryDy=0;exitX=0.5;exitY=1;exitDx=0;exitDy=0;" edge="1" parent="qispf5JoN0M9V1j4HvIJ-64" source="qispf5JoN0M9V1j4HvIJ-91" target="qispf5JoN0M9V1j4HvIJ-105">
          <mxGeometry relative="1" as="geometry">
            <mxPoint x="454.40999999999997" y="259.76" as="sourcePoint" />
            <mxPoint x="454.40999999999997" y="629.76" as="targetPoint" />
          </mxGeometry>
        </mxCell>
        <mxCell id="qispf5JoN0M9V1j4HvIJ-103" value="공지사항 추가및&amp;nbsp;&lt;div&gt;삭제기능&lt;br&gt;(12/14~ 12/16)&lt;/div&gt;" style="whiteSpace=wrap;html=1;treeFolding=1;treeMoving=1;newEdgeStyle={&quot;edgeStyle&quot;:&quot;elbowEdgeStyle&quot;,&quot;startArrow&quot;:&quot;none&quot;,&quot;endArrow&quot;:&quot;none&quot;};" vertex="1" parent="qispf5JoN0M9V1j4HvIJ-64">
          <mxGeometry x="390" y="360" width="130" height="50" as="geometry" />
        </mxCell>
        <mxCell id="qispf5JoN0M9V1j4HvIJ-102" value="컬렉션 프레임워크&lt;br&gt;입출력처리&lt;br&gt;GUI환경 추가&lt;br&gt;(12/10~12/13)" style="whiteSpace=wrap;html=1;treeFolding=1;treeMoving=1;newEdgeStyle={&quot;edgeStyle&quot;:&quot;elbowEdgeStyle&quot;,&quot;startArrow&quot;:&quot;none&quot;,&quot;endArrow&quot;:&quot;none&quot;};" vertex="1" collapsed="1" parent="qispf5JoN0M9V1j4HvIJ-64">
          <mxGeometry x="210" y="580" width="130" height="70" as="geometry" />
        </mxCell>
        <mxCell id="qispf5JoN0M9V1j4HvIJ-115" value="" style="edgeStyle=elbowEdgeStyle;elbow=vertical;sourcePerimeterSpacing=0;targetPerimeterSpacing=0;startArrow=none;endArrow=none;rounded=0;curved=0;exitX=0.5;exitY=1;exitDx=0;exitDy=0;entryX=0.5;entryY=0;entryDx=0;entryDy=0;" edge="1" parent="qispf5JoN0M9V1j4HvIJ-64" target="qispf5JoN0M9V1j4HvIJ-118">
          <mxGeometry relative="1" as="geometry">
            <mxPoint x="93.40999999999997" y="640" as="sourcePoint" />
            <mxPoint x="93" y="690" as="targetPoint" />
          </mxGeometry>
        </mxCell>
        <mxCell id="qispf5JoN0M9V1j4HvIJ-116" value="" style="edgeStyle=elbowEdgeStyle;elbow=vertical;sourcePerimeterSpacing=0;targetPerimeterSpacing=0;startArrow=none;endArrow=none;rounded=0;curved=0;exitX=0.5;exitY=1;exitDx=0;exitDy=0;" edge="1" parent="qispf5JoN0M9V1j4HvIJ-64">
          <mxGeometry relative="1" as="geometry">
            <mxPoint x="269.40999999999997" y="640" as="sourcePoint" />
            <mxPoint x="270" y="700" as="targetPoint" />
          </mxGeometry>
        </mxCell>
        <mxCell id="qispf5JoN0M9V1j4HvIJ-117" value="" style="edgeStyle=elbowEdgeStyle;elbow=vertical;sourcePerimeterSpacing=0;targetPerimeterSpacing=0;startArrow=none;endArrow=none;rounded=0;curved=0;exitX=0.5;exitY=1;exitDx=0;exitDy=0;entryX=0.5;entryY=0;entryDx=0;entryDy=0;" edge="1" parent="qispf5JoN0M9V1j4HvIJ-64" target="qispf5JoN0M9V1j4HvIJ-118">
          <mxGeometry relative="1" as="geometry">
            <mxPoint x="454.40999999999997" y="640" as="sourcePoint" />
            <mxPoint x="454" y="690" as="targetPoint" />
          </mxGeometry>
        </mxCell>
        <mxCell id="qispf5JoN0M9V1j4HvIJ-118" value="코드 병합및 수정&lt;br&gt;GUI환경개선&lt;br&gt;오류 코드 수정&lt;br&gt;( 12/21~12/24 )" style="rounded=1;whiteSpace=wrap;html=1;absoluteArcSize=1;arcSize=14;strokeWidth=2;" vertex="1" parent="qispf5JoN0M9V1j4HvIJ-64">
          <mxGeometry x="215" y="720" width="110" height="90" as="geometry" />
        </mxCell>
        <mxCell id="qispf5JoN0M9V1j4HvIJ-99" value="컬렉션 프레임워크&lt;br&gt;입출력처리&lt;br&gt;GUI환경 추가&lt;br&gt;(~12/3)" style="whiteSpace=wrap;html=1;treeFolding=1;treeMoving=1;newEdgeStyle={&quot;edgeStyle&quot;:&quot;elbowEdgeStyle&quot;,&quot;startArrow&quot;:&quot;none&quot;,&quot;endArrow&quot;:&quot;none&quot;};" vertex="1" parent="qispf5JoN0M9V1j4HvIJ-64">
          <mxGeometry x="28" y="580" width="126" height="70" as="geometry" />
        </mxCell>
        <mxCell id="qispf5JoN0M9V1j4HvIJ-104" value="공지사항 수정 기능&lt;br&gt;(12/16~ 12/18)" style="whiteSpace=wrap;html=1;treeFolding=1;treeMoving=1;newEdgeStyle={&quot;edgeStyle&quot;:&quot;elbowEdgeStyle&quot;,&quot;startArrow&quot;:&quot;none&quot;,&quot;endArrow&quot;:&quot;none&quot;};" vertex="1" parent="WIyWlLk6GJQsqaUBKTNV-1">
          <mxGeometry x="650" y="565" width="130" height="40" as="geometry" />
        </mxCell>
        <mxCell id="qispf5JoN0M9V1j4HvIJ-101" value="기구 상태관리 기능&lt;br&gt;(12/6~12/10)" style="whiteSpace=wrap;html=1;treeFolding=1;treeMoving=1;newEdgeStyle={&quot;edgeStyle&quot;:&quot;elbowEdgeStyle&quot;,&quot;startArrow&quot;:&quot;none&quot;,&quot;endArrow&quot;:&quot;none&quot;};" vertex="1" collapsed="1" parent="WIyWlLk6GJQsqaUBKTNV-1">
          <mxGeometry x="465" y="562.5" width="130" height="40" as="geometry" />
        </mxCell>
        <mxCell id="qispf5JoN0M9V1j4HvIJ-122" value="" style="edgeStyle=elbowEdgeStyle;elbow=vertical;sourcePerimeterSpacing=0;targetPerimeterSpacing=0;startArrow=none;endArrow=none;rounded=0;curved=0;exitX=0.5;exitY=1;exitDx=0;exitDy=0;" edge="1" parent="WIyWlLk6GJQsqaUBKTNV-1">
          <mxGeometry relative="1" as="geometry">
            <mxPoint x="530" y="920" as="sourcePoint" />
            <mxPoint x="530" y="940" as="targetPoint" />
            <Array as="points">
              <mxPoint x="530" y="910" />
            </Array>
          </mxGeometry>
        </mxCell>
        <mxCell id="qispf5JoN0M9V1j4HvIJ-123" value="제출 전 확인 및 검수&lt;br&gt;( 12/25~12/26 )" style="rounded=1;whiteSpace=wrap;html=1;absoluteArcSize=1;arcSize=14;strokeWidth=2;" vertex="1" parent="WIyWlLk6GJQsqaUBKTNV-1">
          <mxGeometry x="445" y="940" width="170" height="70" as="geometry" />
        </mxCell>
      </root>
    </mxGraphModel>
  </diagram>
</mxfile>
